<svg width="32" height="32" viewBox="0 0 32 32" fill="none" xmlns="http://www.w3.org/2000/svg">
<path fill-rule="evenodd" clip-rule="evenodd" d="M16.103 0.369446C7.47064 0.369446 0.472412 7.36767 0.472412 16C0.472412 24.6323 7.47064 31.6306 16.103 31.6306C24.7353 31.6306 31.7335 24.6323 31.7335 16C31.7335 7.36767 24.7353 0.369446 16.103 0.369446ZM22.8781 13.357C23.0029 13.2144 23.0978 13.0483 23.1574 12.8684C23.217 12.6886 23.2401 12.4986 23.2252 12.3097C23.2103 12.1209 23.1578 11.9369 23.0707 11.7686C22.9837 11.6003 22.8639 11.4511 22.7183 11.3298C22.5728 11.2085 22.4044 11.1175 22.2232 11.0623C22.0419 11.007 21.8515 10.9885 21.663 11.0079C21.4745 11.0273 21.2918 11.0843 21.1257 11.1753C20.9595 11.2664 20.8133 11.3898 20.6955 11.5382L14.5854 18.8689L11.4237 15.7059C11.1557 15.447 10.7968 15.3038 10.4242 15.307C10.0517 15.3103 9.69528 15.4597 9.43182 15.7232C9.16836 15.9866 9.01892 16.343 9.01568 16.7156C9.01245 17.0882 9.15567 17.4471 9.41451 17.7151L13.6774 21.978C13.817 22.1175 13.9842 22.2264 14.1682 22.2978C14.3523 22.3691 14.5491 22.4014 14.7463 22.3924C14.9435 22.3834 15.1367 22.3335 15.3135 22.2458C15.4903 22.158 15.6469 22.0344 15.7733 21.8828L22.8781 13.357Z" fill="#84D65A"/>
</svg>
